<svg width="24" height="24" viewBox="0 0 24 24" fill="current"
    xmlns="http://www.w3.org/2000/svg">
    <path d="M8.46943 8.46966C8.76232 8.17677 9.23719 8.17677 9.53009 8.46966L11.9998 10.9393L14.4694 8.46967C14.7623 8.17678 15.2372 8.17678 15.5301 8.46967C15.823 8.76256 15.823 9.23744 15.5301 9.53033L13.0604 12L15.5301 14.4697C15.823 14.7626 15.823 15.2374 15.5301 15.5303C15.2372 15.8232 14.7623 15.8232 14.4694 15.5303L11.9998 13.0607L9.53009 15.5303C9.2372 15.8232 8.76233 15.8232 8.46943 15.5303C8.17654 15.2374 8.17654 14.7626 8.46943 14.4697L10.9391 12L8.46943 9.53032C8.17653 9.23743 8.17653 8.76255 8.46943 8.46966Z" fill="current"/>
    <path fill-rule="evenodd" clip-rule="evenodd" d="M7.31649 3.76876C10.404 3.42368 13.5954 3.42368 16.683 3.76876C18.5094 3.97288 19.9843 5.41153 20.1991 7.24849C20.5683 10.4054 20.5683 13.5946 20.1991 16.7515C19.9843 18.5885 18.5094 20.0271 16.683 20.2313C13.5954 20.5763 10.404 20.5763 7.31649 20.2313C5.49011 20.0271 4.01521 18.5885 3.80036 16.7515C3.43113 13.5946 3.43113 10.4054 3.80036 7.24849C4.01521 5.41153 5.49011 3.97288 7.31649 3.76876ZM16.5164 5.25948C13.5396 4.92677 10.4599 4.92677 7.4831 5.25948C6.33867 5.38738 5.42262 6.29063 5.29021 7.42274C4.93451 10.4639 4.93451 13.5361 5.29021 16.5773C5.42262 17.7094 6.33867 18.6126 7.4831 18.7405C10.4599 19.0732 13.5396 19.0732 16.5164 18.7405C17.6608 18.6126 18.5769 17.7094 18.7093 16.5773C19.065 13.5361 19.065 10.4639 18.7093 7.42274C18.5769 6.29063 17.6608 5.38738 16.5164 5.25948Z" fill="current"/>
</svg>
