<svg width="12" height="12" viewBox="0 0 12 12" fill="none" xmlns="http://www.w3.org/2000/svg">
<path fill-rule="evenodd" clip-rule="evenodd" d="M4.125 6C4.125 4.96447 4.96447 4.125 6 4.125C7.03553 4.125 7.875 4.96447 7.875 6C7.875 7.03553 7.03553 7.875 6 7.875C4.96447 7.875 4.125 7.03553 4.125 6ZM6 4.875C5.37868 4.875 4.875 5.37868 4.875 6C4.875 6.62132 5.37868 7.125 6 7.125C6.62132 7.125 7.125 6.62132 7.125 6C7.125 5.37868 6.62132 4.875 6 4.875Z" fill="black"/>
<path fill-rule="evenodd" clip-rule="evenodd" d="M2.16171 5.32318C1.95215 5.62514 1.875 5.86135 1.875 6C1.875 6.13865 1.95215 6.37486 2.16171 6.67682C2.36429 6.96872 2.66539 7.28514 3.04634 7.57752C3.80989 8.16354 4.85673 8.625 6 8.625C7.14327 8.625 8.19011 8.16354 8.95366 7.57752C9.33461 7.28514 9.63571 6.96872 9.83829 6.67682C10.0478 6.37486 10.125 6.13865 10.125 6C10.125 5.86135 10.0478 5.62514 9.83829 5.32318C9.63571 5.03128 9.33461 4.71486 8.95366 4.42248C8.19011 3.83646 7.14327 3.375 6 3.375C4.85673 3.375 3.80989 3.83646 3.04634 4.42248C2.66539 4.71486 2.36429 5.03128 2.16171 5.32318ZM2.5897 3.82752C3.45483 3.16354 4.65799 2.625 6 2.625C7.34201 2.625 8.54517 3.16354 9.4103 3.82752C9.84369 4.16014 10.2016 4.53122 10.4544 4.89557C10.7003 5.24986 10.875 5.63865 10.875 6C10.875 6.36135 10.7003 6.75014 10.4544 7.10443C10.2016 7.46878 9.84369 7.83986 9.4103 8.17248C8.54517 8.83646 7.34201 9.375 6 9.375C4.65799 9.375 3.45483 8.83646 2.5897 8.17248C2.15631 7.83986 1.7984 7.46878 1.54555 7.10443C1.29969 6.75014 1.125 6.36135 1.125 6C1.125 5.63865 1.29969 5.24986 1.54555 4.89557C1.7984 4.53122 2.15631 4.16014 2.5897 3.82752Z" fill="black"/>
</svg>
