<svg width="12" height="12" viewBox="0 0 12 12" fill="none" xmlns="http://www.w3.org/2000/svg">
<path d="M4.2 2.625C2.80957 2.625 1.625 3.66465 1.625 5.0149C1.625 5.94637 2.06117 6.73059 2.63925 7.38021C3.21533 8.0276 3.95857 8.57101 4.63049 9.02582L5.78979 9.81055C5.91676 9.89648 6.08324 9.89648 6.21021 9.81055L7.36951 9.02582C8.04143 8.57101 8.78467 8.0276 9.36075 7.38021C9.93883 6.73059 10.375 5.94637 10.375 5.0149C10.375 3.66465 9.19043 2.625 7.8 2.625C7.08326 2.625 6.45258 2.96107 6 3.39592C5.54742 2.96107 4.91674 2.625 4.2 2.625Z" fill="#E3238B"/>
</svg>
