<svg width="17" height="17" viewBox="0 0 17 17" fill="none" xmlns="http://www.w3.org/2000/svg">
<path d="M9 14.75C8.58579 14.75 8.25 15.0858 8.25 15.5C8.25 15.9142 8.58579 16.25 9 16.25H15C15.9665 16.25 16.75 15.4665 16.75 14.5V2.5C16.75 1.5335 15.9665 0.75 15 0.75H9C8.58579 0.75 8.25 1.08579 8.25 1.5C8.25 1.91421 8.58579 2.25 9 2.25L15 2.25C15.1381 2.25 15.25 2.36193 15.25 2.5L15.25 14.5C15.25 14.6381 15.1381 14.75 15 14.75H9Z" fill="black"/>
<path fill-rule="evenodd" clip-rule="evenodd" d="M0.25 9.61522C0.25 10.3056 0.809643 10.8652 1.5 10.8652H6.1126C6.11912 10.9386 6.12595 11.012 6.13308 11.0854L6.18711 11.6413C6.26954 12.4894 7.17014 12.9973 7.93856 12.6291C9.57279 11.8459 11.1514 10.6706 12.4049 9.3618C12.8691 8.87712 12.8691 8.11278 12.4049 7.62811L12.3057 7.52454C11.0522 6.21578 9.57279 5.14403 7.93856 4.36084C7.17014 3.99258 6.26954 4.50049 6.18711 5.3486L6.13308 5.90448C6.12595 5.97787 6.11912 6.05128 6.1126 6.1247L1.5 6.1247C0.809644 6.1247 0.25 6.68435 0.25 7.3747V9.61522ZM7.55321 10.0307C7.51071 9.65373 7.19132 9.36522 6.80797 9.36522H1.75L1.75 7.6247H6.80797C7.20406 7.6247 7.53186 7.31671 7.55652 6.92139C7.57466 6.63051 7.59784 6.33987 7.62605 6.04959L7.64173 5.88824C8.94657 6.56069 10.1342 7.4409 11.1577 8.49496C10.7303 8.93505 10.2744 9.34484 9.79324 9.72186C9.12201 10.2478 8.40176 10.71 7.64173 11.1017L7.62605 10.9403C7.59784 10.65 7.57466 10.3594 7.55652 10.0685C7.55572 10.0558 7.55462 10.0432 7.55321 10.0307Z" fill="black"/>
</svg>
