<svg width="24" height="24" viewBox="0 0 24 25" fill="none" xmlns="http://www.w3.org/2000/svg">
<path d="M12 18.75C11.5858 18.75 11.25 19.0858 11.25 19.5C11.25 19.9142 11.5858 20.25 12 20.25H18C18.9665 20.25 19.75 19.4665 19.75 18.5V6.5C19.75 5.5335 18.9665 4.75 18 4.75H12C11.5858 4.75 11.25 5.08579 11.25 5.5C11.25 5.91421 11.5858 6.25 12 6.25L18 6.25C18.1381 6.25 18.25 6.36193 18.25 6.5L18.25 18.5C18.25 18.6381 18.1381 18.75 18 18.75H12Z" fill="black"/>
<path fill-rule="evenodd" clip-rule="evenodd" d="M3.25 13.6152C3.25 14.3056 3.80964 14.8652 4.5 14.8652H9.1126C9.11912 14.9386 9.12595 15.012 9.13308 15.0854L9.18711 15.6413C9.26954 16.4894 10.1701 16.9973 10.9386 16.6291C12.5728 15.8459 14.1514 14.6706 15.4049 13.3618C15.8691 12.8771 15.8691 12.1128 15.4049 11.6281L15.3057 11.5245C14.0522 10.2158 12.5728 9.14403 10.9386 8.36084C10.1701 7.99258 9.26954 8.50049 9.18711 9.3486L9.13308 9.90448C9.12595 9.97787 9.11912 10.0513 9.1126 10.1247L4.5 10.1247C3.80964 10.1247 3.25 10.6843 3.25 11.3747V13.6152ZM10.5532 14.0307C10.5107 13.6537 10.1913 13.3652 9.80797 13.3652H4.75L4.75 11.6247H9.80797C10.2041 11.6247 10.5319 11.3167 10.5565 10.9214C10.5747 10.6305 10.5978 10.3399 10.626 10.0496L10.6417 9.88824C11.9466 10.5607 13.1342 11.4409 14.1577 12.495C13.7303 12.9351 13.2744 13.3448 12.7932 13.7219C12.122 14.2478 11.4018 14.71 10.6417 15.1017L10.626 14.9403C10.5978 14.65 10.5747 14.3594 10.5565 14.0685C10.5557 14.0558 10.5546 14.0432 10.5532 14.0307Z" fill="black"/>
</svg>
