<svg width="19" height="18" viewBox="0 0 19 18" fill="none" xmlns="http://www.w3.org/2000/svg">
<path fill-rule="evenodd" clip-rule="evenodd" d="M11.591 12.4457C8.94069 14.5684 5.06125 14.4013 2.60447 11.9445C-0.0315683 9.3085 -0.0315683 5.03464 2.60447 2.3986C5.24051 -0.23744 9.51437 -0.23744 12.1504 2.3986C14.6072 4.85538 14.7743 8.73481 12.6516 11.3851L17.8072 16.5407C18.1001 16.8336 18.1001 17.3085 17.8072 17.6014C17.5144 17.8943 17.0395 17.8943 16.7466 17.6014L11.591 12.4457ZM3.66513 10.8839C1.61488 8.83363 1.61488 5.50951 3.66513 3.45926C5.71538 1.40901 9.0395 1.40901 11.0898 3.45926C13.1385 5.50801 13.14 8.82875 11.0943 10.8794C11.0927 10.8809 11.0912 10.8823 11.0897 10.8839C11.0882 10.8854 11.0867 10.8869 11.0852 10.8884C9.03463 12.9341 5.71388 12.9326 3.66513 10.8839Z" fill="#A2B7CE"/>
</svg>
