<svg width="24" height="24" viewBox="0 0 24 25" fill="none" xmlns="http://www.w3.org/2000/svg">
<path fill-rule="evenodd" clip-rule="evenodd" d="M6.75 8C6.75 5.65279 8.65279 3.75 11 3.75C13.3472 3.75 15.25 5.65279 15.25 8C15.25 10.3472 13.3472 12.25 11 12.25C8.65279 12.25 6.75 10.3472 6.75 8ZM11 5.25C9.48122 5.25 8.25 6.48122 8.25 8C8.25 9.51878 9.48122 10.75 11 10.75C12.5188 10.75 13.75 9.51878 13.75 8C13.75 6.48122 12.5188 5.25 11 5.25Z" fill="black"/>
<path fill-rule="evenodd" clip-rule="evenodd" d="M3.25 17.5C3.25 15.4289 4.92893 13.75 7 13.75H7.34087C7.52536 13.75 7.70869 13.7792 7.88407 13.8364L8.74959 14.1191C10.2119 14.5965 11.7881 14.5965 13.2504 14.1191L14.1159 13.8364C14.2913 13.7792 14.4746 13.75 14.6591 13.75H15C17.0711 13.75 18.75 15.4289 18.75 17.5V18.6883C18.75 19.4415 18.2041 20.0837 17.4607 20.2051C13.1819 20.9037 8.8181 20.9037 4.53927 20.2051C3.79588 20.0837 3.25 19.4415 3.25 18.6883V17.5ZM7 15.25C5.75736 15.25 4.75 16.2574 4.75 17.5V18.6883C4.75 18.7064 4.76311 18.7218 4.78097 18.7247C8.89972 19.3972 13.1003 19.3972 17.219 18.7247C17.2369 18.7218 17.25 18.7064 17.25 18.6883V17.5C17.25 16.2574 16.2426 15.25 15 15.25H14.6591C14.6328 15.25 14.6066 15.2542 14.5815 15.2623L13.716 15.545C11.9512 16.1212 10.0488 16.1212 8.28398 15.545L7.41847 15.2623C7.39342 15.2542 7.36722 15.25 7.34087 15.25H7Z" fill="black"/>
<path d="M19.5 6.75C19.9142 6.75 20.25 7.08579 20.25 7.5V9.25H22C22.4142 9.25 22.75 9.58579 22.75 10C22.75 10.4142 22.4142 10.75 22 10.75H20.25V12.5C20.25 12.9142 19.9142 13.25 19.5 13.25C19.0858 13.25 18.75 12.9142 18.75 12.5V10.75H17C16.5858 10.75 16.25 10.4142 16.25 10C16.25 9.58579 16.5858 9.25 17 9.25H18.75V7.5C18.75 7.08579 19.0858 6.75 19.5 6.75Z" fill="black"/>
</svg>
