<svg width="20" height="18" viewBox="0 0 20 18" fill="none" xmlns="http://www.w3.org/2000/svg">
<path fill-rule="evenodd" clip-rule="evenodd" d="M3.75 5C3.75 2.65279 5.65279 0.75 8 0.75C10.3472 0.75 12.25 2.65279 12.25 5C12.25 7.34721 10.3472 9.25 8 9.25C5.65279 9.25 3.75 7.34721 3.75 5ZM8 2.25C6.48122 2.25 5.25 3.48122 5.25 5C5.25 6.51878 6.48122 7.75 8 7.75C9.51878 7.75 10.75 6.51878 10.75 5C10.75 3.48122 9.51878 2.25 8 2.25Z" fill="black"/>
<path fill-rule="evenodd" clip-rule="evenodd" d="M0.25 14.5C0.25 12.4289 1.92893 10.75 4 10.75H4.34087C4.52536 10.75 4.70869 10.7792 4.88407 10.8364L5.74959 11.1191C7.21187 11.5965 8.78813 11.5965 10.2504 11.1191L11.1159 10.8364C11.2913 10.7792 11.4746 10.75 11.6591 10.75H12C14.0711 10.75 15.75 12.4289 15.75 14.5V15.6883C15.75 16.4415 15.2041 17.0837 14.4607 17.2051C10.1819 17.9037 5.8181 17.9037 1.53927 17.2051C0.795884 17.0837 0.25 16.4415 0.25 15.6883V14.5ZM4 12.25C2.75736 12.25 1.75 13.2574 1.75 14.5V15.6883C1.75 15.7064 1.76311 15.7218 1.78097 15.7247C5.89972 16.3972 10.1003 16.3972 14.219 15.7247C14.2369 15.7218 14.25 15.7064 14.25 15.6883V14.5C14.25 13.2574 13.2426 12.25 12 12.25H11.6591C11.6328 12.25 11.6066 12.2542 11.5815 12.2623L10.716 12.545C8.95119 13.1212 7.04881 13.1212 5.28398 12.545L4.41847 12.2623C4.39342 12.2542 4.36722 12.25 4.34087 12.25H4Z" fill="black"/>
<path d="M16.5 3.75C16.9142 3.75 17.25 4.08579 17.25 4.5V6.25H19C19.4142 6.25 19.75 6.58579 19.75 7C19.75 7.41421 19.4142 7.75 19 7.75H17.25V9.5C17.25 9.91421 16.9142 10.25 16.5 10.25C16.0858 10.25 15.75 9.91421 15.75 9.5V7.75H14C13.5858 7.75 13.25 7.41421 13.25 7C13.25 6.58579 13.5858 6.25 14 6.25H15.75V4.5C15.75 4.08579 16.0858 3.75 16.5 3.75Z" fill="black"/>
</svg>
